<svg width="24" height="24" viewBox="0 0 24 24" fill="none" xmlns="http://www.w3.org/2000/svg">
<path d="M15.1202 22.7998H3.8402C3.0482 22.7998 2.4002 22.1518 2.4002 21.3598V19.4398H1.9202C1.5122 19.4398 1.2002 19.1278 1.2002 18.7198C1.2002 18.3118 1.5122 17.9998 1.9202 17.9998H2.4002V16.0798H1.9202C1.5122 16.0798 1.2002 15.7678 1.2002 15.3598C1.2002 14.9518 1.5122 14.6398 1.9202 14.6398H2.4002V12.7198H1.9202C1.5122 12.7198 1.2002 12.4078 1.2002 11.9998C1.2002 11.5918 1.5122 11.2798 1.9202 11.2798H2.4002V9.35981H1.9202C1.5122 9.35981 1.2002 9.04781 1.2002 8.63981C1.2002 8.23181 1.5122 7.91981 1.9202 7.91981H2.4002V5.99981H1.9202C1.5122 5.99981 1.2002 5.68781 1.2002 5.27981C1.2002 4.87181 1.5122 4.55981 1.9202 4.55981H2.4002V2.63981C2.4002 1.84781 3.0482 1.19981 3.8402 1.19981H15.1202C15.9122 1.19981 16.5602 1.84781 16.5602 2.63981V21.3598C16.5602 22.1518 15.9122 22.7998 15.1202 22.7998ZM12.7202 2.63981H3.8402V4.55981H4.32019C4.72819 4.55981 5.04019 4.87181 5.04019 5.27981C5.04019 5.68781 4.72819 5.99981 4.32019 5.99981H3.8402V7.91981H4.32019C4.72819 7.91981 5.04019 8.23181 5.04019 8.63981C5.04019 9.04781 4.72819 9.35981 4.32019 9.35981H3.8402V11.2798H4.32019C4.72819 11.2798 5.04019 11.5918 5.04019 11.9998C5.04019 12.4078 4.72819 12.7198 4.32019 12.7198H3.8402V14.6398H4.32019C4.72819 14.6398 5.04019 14.9518 5.04019 15.3598C5.04019 15.7678 4.72819 16.0798 4.32019 16.0798H3.8402V17.9998H4.32019C4.72819 17.9998 5.04019 18.3118 5.04019 18.7198C5.04019 19.1278 4.72819 19.4398 4.32019 19.4398H3.8402V21.3598H12.7202V2.63981ZM15.1202 2.63981H13.6802V21.3598H15.1202V2.63981ZM22.0802 22.7998H19.6802C19.2722 22.7998 18.9602 22.4878 18.9602 22.0798V21.1198H17.7602C17.3522 21.1198 17.0402 20.8078 17.0402 20.3998V17.5198C17.0402 17.1118 17.3522 16.7998 17.7602 16.7998C18.1682 16.7998 18.4802 17.1118 18.4802 17.5198V19.6798H18.9602V3.95981C18.9602 3.83981 18.9842 3.69581 19.0562 3.59981L20.2562 1.55981C20.4002 1.34381 20.6162 1.19981 20.8802 1.19981C21.1442 1.19981 21.3602 1.34381 21.5042 1.55981L22.7042 3.59981C22.7762 3.71981 22.8002 3.83981 22.8002 3.95981V22.0798C22.8002 22.4878 22.4882 22.7998 22.0802 22.7998ZM21.3602 4.15181L20.8802 3.33581L20.4002 4.15181V21.3598H21.3602V4.15181Z" fill="black"/>
</svg>
