<svg width="24" height="24" viewBox="0 0 24 24" fill="none" xmlns="http://www.w3.org/2000/svg">
<g clip-path="url(#clip0_319_2894)">
<path d="M17.3578 0.09375C13.7484 0.09375 10.8094 3.03281 10.8094 6.64219V10.8094H1.28437C0.628125 10.8094 0.09375 11.3438 0.09375 12V22.7156C0.09375 23.3719 0.628125 23.9062 1.28437 23.9062H14.3812C15.0375 23.9062 15.5719 23.3719 15.5719 22.7156V12C15.5719 11.3438 15.0375 10.8094 14.3812 10.8094H13.1906V6.64219C13.1906 4.34531 15.0609 2.475 17.3578 2.475C19.6547 2.475 21.525 4.34531 21.525 6.64219V10.8094C21.525 11.4656 22.0594 12 22.7156 12C23.3719 12 23.9062 11.4656 23.9062 10.8094V6.64219C23.9062 3.03281 20.9672 0.09375 17.3578 0.09375Z" fill="black"/>
</g>
<defs>
<clipPath id="clip0_319_2894">
<rect width="24" height="24" fill="white"/>
</clipPath>
</defs>
</svg>
