<svg width="24" height="24" viewBox="0 0 24 24" fill="none" xmlns="http://www.w3.org/2000/svg">
<path d="M7.04011 0C5.86674 0 4.90674 0.96 4.90674 2.13338V21.8666C4.90674 23.04 5.86674 24 7.04011 24H16.96C18.1334 24 19.0934 23.04 19.0934 21.8666V2.13338C19.0934 0.96 18.1334 0 16.96 0H7.04011ZM10.8111 2.05463H13.1897C13.3461 2.05463 13.4729 2.23388 13.4729 2.45475C13.4729 2.67563 13.3461 2.85488 13.1897 2.85488H10.8111C10.6547 2.85488 10.528 2.67563 10.528 2.45475C10.528 2.23388 10.6547 2.05463 10.8111 2.05463ZM6.07861 4.90688H17.9219V19.0935H6.07861V4.90688ZM12.0002 20.226C12.7296 20.226 13.321 20.8174 13.321 21.5467C13.321 22.2761 12.7296 22.8675 12.0002 22.8675C11.2709 22.8675 10.6795 22.2761 10.6795 21.5467C10.6795 20.8174 11.2709 20.226 12.0002 20.226Z" fill="white"/>
</svg>
