<svg width="43" height="43" viewBox="0 0 43 43" fill="none" xmlns="http://www.w3.org/2000/svg">
<g clip-path="url(#clip0_330_2533)">
<path d="M23.2916 12.5416H19.7083V19.7083H12.5416V23.2916H19.7083V30.4583H23.2916V23.2916H30.4583V19.7083H23.2916V12.5416ZM21.4999 3.58325C11.6099 3.58325 3.58325 11.6099 3.58325 21.4999C3.58325 31.3899 11.6099 39.4166 21.4999 39.4166C31.3899 39.4166 39.4166 31.3899 39.4166 21.4999C39.4166 11.6099 31.3899 3.58325 21.4999 3.58325ZM21.4999 35.8333C13.5987 35.8333 7.16659 29.4012 7.16659 21.4999C7.16659 13.5987 13.5987 7.16659 21.4999 7.16659C29.4012 7.16659 35.8333 13.5987 35.8333 21.4999C35.8333 29.4012 29.4012 35.8333 21.4999 35.8333Z" fill="#323232"/>
</g>
<defs>
<clipPath id="clip0_330_2533">
<rect width="43" height="43" fill="white"/>
</clipPath>
</defs>
</svg>
