<svg width="24" height="24" viewBox="0 0 24 24" fill="none" xmlns="http://www.w3.org/2000/svg">
<path d="M21.525 19.5H2.475C1.5 19.5 0.75 18.75 0.75 17.775V6.225C0.75 5.25 1.5 4.5 2.475 4.5H21.525C22.5 4.5 23.25 5.25 23.25 6.225V17.775C23.25 18.75 22.5 19.5 21.525 19.5ZM2.475 6C2.325 6 2.25 6.075 2.25 6.225V17.775C2.25 17.925 2.325 18 2.475 18H21.525C21.675 18 21.75 17.925 21.75 17.775V6.225C21.75 6.075 21.675 6 21.525 6H2.475Z" fill="black"/>
<path d="M22.5 8.8501H1.5V11.8501H22.5V8.8501Z" fill="black"/>
</svg>
