<svg width="24" height="24" viewBox="0 0 24 24" fill="none" xmlns="http://www.w3.org/2000/svg">
<g clip-path="url(#clip0_319_2682)">
<path d="M21.6 0H2.4C1.08 0 0 1.08 0 2.4V16.8C0 18.12 1.08 19.2 2.4 19.2H9.6V21.6H6L4.8 24H19.2L18 21.6H14.4V19.2H21.6C22.92 19.2 24 18.12 24 16.8V2.4C24 1.08 22.92 0 21.6 0ZM21.6 14.4H16.92C16.68 12 14.64 10.08 12.24 10.08C9.72 10.08 7.68 12 7.44 14.4H2.4V2.4H21.6V14.4Z" fill="black"/>
<path d="M12.2398 8.88008C13.5653 8.88008 14.6398 7.80556 14.6398 6.48008C14.6398 5.15459 13.5653 4.08008 12.2398 4.08008C10.9144 4.08008 9.83984 5.15459 9.83984 6.48008C9.83984 7.80556 10.9144 8.88008 12.2398 8.88008Z" fill="black"/>
</g>
<defs>
<clipPath id="clip0_319_2682">
<rect width="24" height="24" fill="white"/>
</clipPath>
</defs>
</svg>
